<svg id="Layer_1" data-name="Layer 1" xmlns="http://www.w3.org/2000/svg" viewBox="0 0 180.29 38.08"><defs><style>.cls-2{fill:#231f20}</style></defs><circle cx="18.73" cy="19.1" r="11.55" opacity=".44" fill="#a31d21"/><path class="cls-2" d="M65.1 87.49v-23h10.21a13.69 13.69 0 014.68.62 5.13 5.13 0 012.56 2.19 6.55 6.55 0 011 3.47 5.79 5.79 0 01-1.59 4.13A8.07 8.07 0 0177 77a7.86 7.86 0 011.84 1.14 16.23 16.23 0 012.53 3.06l4 6.27h-3.81l-3-4.79c-.89-1.38-1.62-2.44-2.19-3.17a7.12 7.12 0 00-1.6-1.51 4.58 4.58 0 00-1.39-.61 9.5 9.5 0 00-1.7-.11h-3.53v10.21zm3.05-12.86h6.55a9.72 9.72 0 003.3-.43 3.45 3.45 0 001.79-1.38 3.75 3.75 0 00.62-2.07 3.42 3.42 0 00-1.19-2.68A5.55 5.55 0 0075.44 67h-7.29zm22.6 12.86v-23h16.65v2.72H93.8v7h12.74v2.7H93.8v7.83h14.13v2.72zM131 79.42l3 .77a10.23 10.23 0 01-3.44 5.72 9.47 9.47 0 01-6.09 2 10.92 10.92 0 01-6-1.51 9.45 9.45 0 01-3.58-4.4 15.69 15.69 0 01-1.22-6.17 13.55 13.55 0 011.38-6.28 9.36 9.36 0 013.95-4.08 11.38 11.38 0 015.58-1.39 9.46 9.46 0 015.81 1.76 9.14 9.14 0 013.28 4.94l-3 .71a7.13 7.13 0 00-2.32-3.66 6.22 6.22 0 00-3.83-1.14A7.44 7.44 0 00120 68a6.64 6.64 0 00-2.5 3.41 13.52 13.52 0 00-.73 4.42 14.06 14.06 0 00.86 5.13 6.37 6.37 0 002.66 3.27 7.4 7.4 0 003.91 1.09 6.55 6.55 0 004.33-1.48 7.5 7.5 0 002.47-4.42z" transform="translate(-26.85 -56.92)"/><path d="M137.66 87.49l8.84-23h3.28l9.42 23h-3.47l-2.68-7h-9.63l-2.53 7zM144.3 78h7.81l-2.41-6.38q-1.09-2.89-1.63-4.77a29.51 29.51 0 01-1.24 4.4zm19.62 9.49v-23H167v20.3h11.34v2.72zm20.3 0v-23h3.05v20.3h11.33v2.72z" transform="translate(-26.85 -56.92)" fill="#4a494a"/><circle cx="18.73" cy="19.1" r="7.27" fill="#a31d21"/><path class="cls-2" d="M1 11.83H0V0h17.09v1H1v10.83zm179.29 26.25h-17.08v-1h16.08V26.25h1v11.83z"/></svg>