<svg id="Layer_1" data-name="Layer 1" xmlns="http://www.w3.org/2000/svg" viewBox="0 0 180.29 38.08"><defs><style>.cls-1,.cls-4{fill:#a31d21;}.cls-1{opacity:0.44;}.cls-2{fill:#231f20;}.cls-3{fill:#4a494a;}</style></defs><title>Logo_recall</title><circle class="cls-1" cx="18.73" cy="19.1" r="11.55"/><path class="cls-2" d="M65.1,87.49v-23H75.31a13.69,13.69,0,0,1,4.68.62,5.13,5.13,0,0,1,2.56,2.19,6.55,6.55,0,0,1,1,3.47,5.79,5.79,0,0,1-1.59,4.13A8.07,8.07,0,0,1,77,77a7.86,7.86,0,0,1,1.84,1.14,16.23,16.23,0,0,1,2.53,3.06l4,6.27H81.56l-3-4.79c-.89-1.38-1.62-2.44-2.19-3.17A7.12,7.12,0,0,0,74.77,78a4.58,4.58,0,0,0-1.39-.61,9.5,9.5,0,0,0-1.7-.11H68.15V87.49Zm3.05-12.86H74.7A9.72,9.72,0,0,0,78,74.2a3.45,3.45,0,0,0,1.79-1.38,3.75,3.75,0,0,0,.62-2.07,3.42,3.42,0,0,0-1.19-2.68A5.55,5.55,0,0,0,75.44,67H68.15Z" transform="translate(-26.85 -56.92)"/><path class="cls-2" d="M90.75,87.49v-23H107.4v2.72H93.8v7h12.74v2.7H93.8v7.83h14.13v2.72Z" transform="translate(-26.85 -56.92)"/><path class="cls-2" d="M131,79.42l3,.77a10.23,10.23,0,0,1-3.44,5.72,9.47,9.47,0,0,1-6.09,2,10.92,10.92,0,0,1-6-1.51A9.45,9.45,0,0,1,114.89,82a15.69,15.69,0,0,1-1.22-6.17,13.55,13.55,0,0,1,1.38-6.28A9.36,9.36,0,0,1,119,65.47a11.38,11.38,0,0,1,5.58-1.39,9.46,9.46,0,0,1,5.81,1.76,9.14,9.14,0,0,1,3.28,4.94l-3,.71a7.13,7.13,0,0,0-2.32-3.66,6.22,6.22,0,0,0-3.83-1.14A7.44,7.44,0,0,0,120,68a6.64,6.64,0,0,0-2.5,3.41,13.52,13.52,0,0,0-.73,4.42,14.06,14.06,0,0,0,.86,5.13,6.37,6.37,0,0,0,2.66,3.27,7.4,7.4,0,0,0,3.91,1.09,6.55,6.55,0,0,0,4.33-1.48A7.5,7.5,0,0,0,131,79.42Z" transform="translate(-26.85 -56.92)"/><path class="cls-3" d="M137.66,87.49l8.84-23h3.28l9.42,23h-3.47l-2.68-7h-9.63l-2.53,7ZM144.3,78h7.81l-2.41-6.38q-1.09-2.89-1.63-4.77a29.51,29.51,0,0,1-1.24,4.4Z" transform="translate(-26.85 -56.92)"/><path class="cls-3" d="M163.92,87.49v-23H167v20.3h11.34v2.72Z" transform="translate(-26.85 -56.92)"/><path class="cls-3" d="M184.22,87.49v-23h3.05v20.3H198.6v2.72Z" transform="translate(-26.85 -56.92)"/><circle class="cls-4" cx="18.73" cy="19.1" r="7.27"/><polygon class="cls-2" points="1 11.83 0 11.83 0 0 17.09 0 17.09 1 1 1 1 11.83"/><polygon class="cls-2" points="180.29 38.08 163.21 38.08 163.21 37.08 179.29 37.08 179.29 26.25 180.29 26.25 180.29 38.08"/></svg>